<svg id="Capa_1" enable-background="new 0 0 512 512" height="512" viewBox="0 0 512 512" width="512" xmlns="http://www.w3.org/2000/svg"><g><path d="m214.95 52.86c49.791 0 96.88 19.477 132.595 54.843 36.201 35.846 56.138 83.354 56.137 133.77 0 17.639-2.565 35.229-7.443 52.148l52.618 10.084 2.929-14.542c3.157-15.665 4.756-31.71 4.756-47.689.001-64.232-25.231-124.812-71.05-170.58-45.769-45.716-106.305-70.894-170.458-70.894-.796 0-1.57.003-2.37.012-43.662.43-86.246 12.566-123.148 35.098l-12.394 7.567 26.517 46.587c31.613-23.24 69.594-36.001 109.545-36.395.602-.006 1.187-.009 1.766-.009z"/><path d="m286.946 386.818c-4.416 14.884-12.27 28.486-23.149 39.742-17.86 18.48-41.982 28.657-67.923 28.657h-112.908l-17.666 56.783h124.693c54.65 0 98.395-45.17 96.952-99.607v-25.575z"/><path d="m397.931 412.393h-110.658c2.866 14.507 12.367 26.929 25.941 32.921 16.64 7.346 36.322 7.999 56.951 7.999h56.726z"/><path d="m167.408 273.022h-27.758l-47.366 152.246h103.59c36.601 0 65.272-29.548 65.272-67.269h29.949c0 8.37-1.01 16.566-2.96 24.444h88.601l-32.957-46.567c20.007-27.267 30.903-60.337 30.903-94.403.001-42.616-16.883-82.805-47.542-113.163-30.667-30.368-71.039-46.833-113.669-46.443-42.299.416-81.999 17.203-111.787 47.268-29.809 30.086-46.225 69.981-46.225 112.336 0 14.63 1.982 29.13 5.89 43.097l5.711 20.411 67.055-47.213 1.682-3.807c3.373-7.635 10.933-12.56 19.28-12.56h33.394v10.56c0 11.633-9.43 21.063-21.063 21.063z"/></g></svg>